# xmcd
#
# Track frame offsets:
#	150
#	14945
#	31457
#	45830
#	63540
#	88025
#	104322
#	118635
#	135610
#
# Disc length: 2251 seconds
#
# Revision: 2
# Processed by: cddbd v1.5.2PL0 Copyright (c) Steve Scherf et al.
# Submitted via: audiograbber 1.83.01
#
DISCID=7708c909
DTITLE=Daniels Band, The Charlie - Million mile reflections
DYEAR=1979
DGENRE=Country
TTITLE0=Passing lane
TTITLE1=Blue star
TTITLE2=Jitterburg
TTITLE3=Behind your eyes
TTITLE4=Reflections
TTITLE5=The devil went down to Georgia
TTITLE6=Mississippi
TTITLE7=Blind man 
TTITLE8=Rainbow ride
EXTD=
EXTT0=
EXTT1=
EXTT2=
EXTT3=
EXTT4=
EXTT5=
EXTT6=
EXTT7=
EXTT8=
PLAYORDER=
